<svg width="201" height="241" viewBox="0 0 201 241" fill="none" xmlns="http://www.w3.org/2000/svg">
<g clip-path="url(#clip0_33_9)">
<path d="M0.587646 30.4471L25.5834 0.466797H50.5791V30.4471L25.5834 60.4275H0.587646V30.4471Z" fill="#FFBE99"/>
<path d="M50.579 0.466797H25.5833V30.4471H50.579V0.466797Z" fill="#262626"/>
<path d="M0.587646 90.4284L25.5834 60.4275H50.5791V90.4284L25.5834 120.409H0.587646V90.4284Z" fill="#FFBE99"/>
<path d="M50.579 60.4275H25.5833V90.4078H50.579V60.4275Z" fill="#262626"/>
<path d="M0.587646 150.389L25.5834 120.409H50.5791V150.389L25.5834 180.369H0.587646V150.389Z" fill="#FFBE99"/>
<path d="M50.579 120.409H25.5833V150.389H50.579V120.409Z" fill="#262626"/>
<path d="M0.587646 210.35L25.5834 180.369H50.5791V210.35L25.5834 240.351H0.587646V210.35Z" fill="#FFBE99"/>
<path d="M50.579 180.369H25.5833V210.35H50.579V180.369Z" fill="#262626"/>
<path d="M50.5791 30.4471L75.592 0.466797H100.588V30.4471L75.592 60.4275H50.5791V30.4471Z" fill="#FFBE99"/>
<path d="M100.588 0.466797H75.592V30.4471H100.588V0.466797Z" fill="#262626"/>
<path d="M50.5791 90.4284L75.592 60.4275H100.588V90.4284L75.592 120.409H50.5791V90.4284Z" fill="#FFBE99"/>
<path d="M100.588 60.4275H75.592V90.4078H100.588V60.4275Z" fill="#262626"/>
<path d="M50.5791 150.389L75.592 120.409H100.588V150.389L75.592 180.369H50.5791V150.389Z" fill="#FFBE99"/>
<path d="M100.588 120.409H75.592V150.389H100.588V120.409Z" fill="#262626"/>
<path d="M100.588 30.4471L125.583 0.466797H150.579V30.4471L125.583 60.4275H100.588V30.4471Z" fill="#FFBE99"/>
<path d="M150.579 0.466797H125.583V30.4471H150.579V0.466797Z" fill="#262626"/>
<path d="M150.579 30.4471L175.575 0.466797H200.588V30.4471L175.575 60.4275H150.579V30.4471Z" fill="#FFBE99"/>
<path d="M200.57 0.466797H175.575V30.4471H200.57V0.466797Z" fill="#262626"/>
<path d="M100.588 90.4284L125.583 60.4275H150.579V90.4284L125.583 120.409H100.588V90.4284Z" fill="#FFBE99"/>
<path d="M150.579 60.4275H125.583V90.4078H150.579V60.4275Z" fill="#262626"/>
</g>
<defs>
<clipPath id="clip0_33_9">
<rect width="200" height="239.884" fill="white" transform="translate(0.587646 0.466797)"/>
</clipPath>
</defs>
</svg>
