<svg width="447" height="447" viewBox="0 0 447 447" fill="none" xmlns="http://www.w3.org/2000/svg">
<path fill-rule="evenodd" clip-rule="evenodd" d="M239.723 0.865234H207.865V141.92L155.025 11.1362L125.488 23.0701L179.697 157.242L77.3724 54.9171L54.846 77.4437L152.919 175.517L25.8237 119.988L13.0692 149.18L147.551 207.937H0.793945V239.794H147.551L13.0692 298.55L25.8237 327.743L152.919 272.214L54.846 370.287L77.3724 392.812L179.697 290.489L125.488 424.661L155.025 436.594L207.865 305.811V446.865H239.723V305.811L292.563 436.594L322.099 424.661L267.892 290.489L370.216 392.812L392.741 370.287L294.668 272.214L421.764 327.743L434.518 298.55L300.038 239.794H446.794V207.937H300.035L434.518 149.18L421.764 119.988L294.668 175.517L392.741 77.4434L370.216 54.9171L267.892 157.241L322.099 23.0701L292.563 11.1362L239.723 141.92V0.865234Z" fill="#C2B4A3" fill-opacity="0.3"/>
</svg>
