<svg width="446" height="431" viewBox="0 0 446 431" fill="none" xmlns="http://www.w3.org/2000/svg">
<path d="M396.966 338.834L320.259 263.073C313.189 256.103 317.659 244.054 327.565 243.382L435.124 235.986C448.847 235.047 449.673 215.171 436.067 213.102L329.492 196.906C319.686 195.414 316.21 183.044 323.826 176.675L406.497 107.472C417.05 98.6228 406.026 82.0645 393.802 88.3879L298.061 137.924C289.249 142.48 279.177 134.526 281.585 124.893L307.783 20.3276C311.128 6.97314 292.477 0.053417 286.303 12.3581L237.958 108.707C233.501 117.579 220.678 117.039 216.97 107.838L176.691 7.83649C171.549 -4.93004 152.393 0.431113 154.621 14.0218L172.148 120.4C173.767 130.195 163.064 137.305 154.658 132.04L63.3097 74.8035C51.6466 67.498 39.2923 83.0958 49.0982 92.7646L125.804 168.526C132.875 175.496 128.404 187.545 118.499 188.217L10.9401 195.613C-2.78905 196.568 -3.60859 216.428 9.99716 218.497L116.572 234.693C126.378 236.186 129.854 248.556 122.238 254.924L39.5672 324.127C29.0201 332.959 40.0435 349.518 52.268 343.195L148.025 293.664C156.838 289.109 166.904 297.079 164.501 306.695L138.303 411.262C134.958 424.616 153.609 431.536 159.784 419.231L208.129 322.882C212.586 314.009 225.415 314.533 229.117 323.75L269.379 423.746C274.521 436.513 293.677 431.151 291.443 417.577L273.916 311.199C272.313 301.41 282.999 294.295 291.406 299.559L382.754 356.796C394.417 364.101 406.772 348.503 396.966 338.834Z" fill="#C2B4A3" fill-opacity="0.2"/>
</svg>
