<svg width="181" height="181" viewBox="0 0 181 181" fill="none" xmlns="http://www.w3.org/2000/svg">
<path d="M180.816 101.535L169.226 79.6411C152.537 88.4732 138.978 93.843 128.694 95.6882C140.678 87.4988 151.562 73.4007 161.472 53.2693L139.247 42.3018C132.488 56.0061 126.165 64.7966 120.443 70.3944C123.698 55.3633 119.551 34.1747 101.763 0.587921L79.8692 12.1774C88.7012 28.8671 94.071 42.4262 95.9161 52.6888C87.7268 40.7054 73.6287 29.8416 53.5181 19.9107L42.5506 42.136C56.2548 48.8948 65.0454 55.2182 70.6432 60.9404C55.6121 57.6854 34.4234 61.8319 0.83667 79.5997L12.4262 101.493C29.0951 92.6612 42.6335 87.3122 52.9168 85.4463C40.9127 93.7393 30.0488 107.817 20.1801 127.844L42.4054 138.812C49.1228 125.17 55.4669 116.359 61.2099 110.719C57.9548 125.75 62.1014 146.939 79.8899 180.526L101.783 168.936C92.9514 152.267 87.6024 138.729 85.7365 128.446C94.0295 140.45 108.107 151.314 128.135 161.182L139.102 138.957C125.46 132.24 116.649 125.916 111.009 120.173C114.057 120.837 117.333 121.189 120.94 121.189C135.121 121.189 154.05 115.674 180.837 101.493L180.816 101.535Z" fill="#C2B4A3" fill-opacity="0.2"/>
</svg>
