<svg width="261" height="261" viewBox="0 0 261 261" fill="none" xmlns="http://www.w3.org/2000/svg">
<path d="M260.953 146.66L244.207 115.025C220.091 127.787 200.499 135.546 185.64 138.212C202.956 126.379 218.683 106.008 233.003 76.9195L200.888 61.0721C191.122 80.8739 181.985 93.5758 173.717 101.664C178.42 79.9452 172.429 49.3287 146.726 0.797791L115.091 17.544C127.852 41.6597 135.611 61.2518 138.278 76.0807C126.444 58.7653 106.073 43.0677 77.0147 28.7181L61.1673 60.8324C80.9691 70.5985 93.671 79.7355 101.76 88.0037C80.0404 83.3004 49.424 89.2919 0.893066 114.965L17.6392 146.6C41.725 133.838 61.2871 126.109 76.146 123.413C58.8007 135.396 43.103 155.737 28.8433 184.676L60.9576 200.524C70.6638 180.812 79.8307 168.08 88.1289 159.931C83.4256 181.65 89.4171 212.267 115.121 260.798L146.755 244.052C133.994 219.966 126.265 200.404 123.568 185.545C135.551 202.89 155.893 218.588 184.831 232.848L200.679 200.733C180.967 191.027 168.235 181.89 160.087 173.592C164.49 174.551 169.224 175.06 174.436 175.06C194.927 175.06 222.278 167.091 260.983 146.6L260.953 146.66Z" fill="#C2B4A3" fill-opacity="0.2"/>
</svg>
