<svg width="446" height="431" viewBox="0 0 446 431" fill="none" xmlns="http://www.w3.org/2000/svg">
<path d="M396.918 338.708L320.211 262.947C313.141 255.977 317.611 243.928 327.517 243.256L435.076 235.86C448.799 234.921 449.624 215.046 436.019 212.976L329.443 196.78C319.638 195.288 316.162 182.918 323.778 176.549L406.449 107.346C417.002 98.4968 405.978 81.9385 393.754 88.2619L298.013 137.798C289.201 142.354 279.129 134.4 281.537 124.767L307.735 20.2016C311.08 6.84719 292.429 -0.0725291 286.254 12.2322L237.91 108.581C233.453 117.453 220.63 116.913 216.921 107.712L176.643 7.71054C171.501 -5.05598 152.345 0.305167 154.573 13.8959L172.1 120.274C173.719 130.069 163.016 137.179 154.61 131.914L63.2616 74.6776C51.5985 67.3721 39.2442 82.9699 49.0501 92.6387L125.756 168.4C132.827 175.37 128.356 187.419 118.451 188.091L10.892 195.487C-2.83714 196.442 -3.65669 216.302 9.94906 218.372L116.524 234.568C126.33 236.06 129.806 248.43 122.189 254.798L39.5191 324.001C28.972 332.834 39.9954 349.392 52.2199 343.069L147.977 293.538C156.789 288.983 166.856 296.953 164.453 306.569L138.255 411.136C134.91 424.49 153.561 431.41 159.735 419.105L208.08 322.756C212.538 313.883 225.366 314.407 229.069 323.625L269.331 423.62C274.473 436.387 293.629 431.025 291.395 417.451L273.868 311.073C272.265 301.284 282.951 294.169 291.357 299.433L382.706 356.67C394.369 363.975 406.724 348.377 396.918 338.708Z" fill="#C2B4A3" fill-opacity="0.2"/>
</svg>
