<svg width="76" height="76" viewBox="0 0 76 76" fill="none" xmlns="http://www.w3.org/2000/svg">
<path d="M35.583 11.0327C37.13 10.1396 39.036 10.1396 40.583 11.0327L60.2647 22.396C61.8117 23.2891 62.7647 24.9398 62.7647 26.7261V49.4526C62.7647 51.2389 61.8117 52.8896 60.2647 53.7827L40.583 65.146C39.036 66.0391 37.13 66.0391 35.583 65.146L15.9013 53.7827C14.3543 52.8896 13.4013 51.2389 13.4013 49.4526V26.7261C13.4013 24.9398 14.3543 23.2891 15.9013 22.396L35.583 11.0327Z" fill="#1E293B"/>
<path d="M35.833 2.46574C37.2253 1.6619 38.9407 1.6619 40.333 2.46574L67.809 18.329C69.2013 19.1328 70.059 20.6184 70.059 22.2261V53.9526C70.059 55.5603 69.2013 57.0459 67.809 57.8497L40.333 73.713C38.9407 74.5168 37.2253 74.5168 35.833 73.713L8.35705 57.8497C6.96475 57.0459 6.10706 55.5603 6.10706 53.9526V22.2261C6.10706 20.6184 6.96475 19.1328 8.35706 18.329L35.833 2.46574Z" stroke="#ABB6B8"/>
</svg>
